<?xml version="1.0" encoding="UTF-8"?>
<svg width="111px" height="38px" viewBox="0 0 111 38" version="1.1" xmlns="http://www.w3.org/2000/svg" xmlns:xlink="http://www.w3.org/1999/xlink">
    <!-- Generator: Sketch 46 (44423) - http://www.bohemiancoding.com/sketch -->
    <title>Group 5 Copy 2</title>
    <desc>Created with Sketch.</desc>
    <defs>
        <rect id="path-1" x="0" y="0" width="109.082128" height="35.6275304" rx="1.68421053"></rect>
    </defs>
    <g id="V5---Mobile" stroke="none" stroke-width="1" fill="none" fill-rule="evenodd">
        <g id="Desktop-HD-Copy-3" transform="translate(-1131.000000, -734.000000)">
            <g id="Group-10" transform="translate(1132.000000, 692.000000)">
                <g id="Group-18" transform="translate(0.000000, 43.000000)">
                    <g id="Group-5-Copy-2">
                        <g id="Rectangle-3">
                            <use fill="#FFFFFF" fill-rule="evenodd" xlink:href="#path-1"></use>
                            <rect stroke="#4A4A4A" stroke-width="0.842105263" x="-0.421052632" y="-0.421052632" width="109.924233" height="36.4696356" rx="1.68421053"></rect>
                        </g>
                        <path d="M10.3568883,6.19609224 C9.37042508,6.19609224 8.57073864,7.06480025 8.57073864,8.1405818 L8.57073864,28.2614601 C8.57073864,29.335372 9.3695405,30.2059497 10.3568883,30.2059497 L19.2511179,30.2059497 C20.2375811,30.2059497 21.0372676,29.3372416 21.0372676,28.2614601 L21.0372676,8.1405818 C21.0372676,7.06666987 20.2384657,6.19609224 19.2511179,6.19609224 L10.3568883,6.19609224 L10.3568883,6.19609224 Z M9.73947573,9.344926 L9.73947573,27.0571159 L19.8685305,27.0571159 L19.8685305,9.344926 L9.73947573,9.344926 L9.73947573,9.344926 Z M14.8040031,29.4187412 C15.2343202,29.4187412 15.5831612,29.066296 15.5831612,28.6315328 C15.5831612,28.1967696 15.2343202,27.8443243 14.8040031,27.8443243 C14.373686,27.8443243 14.0248451,28.1967696 14.0248451,28.6315328 C14.0248451,29.066296 14.373686,29.4187412 14.8040031,29.4187412 L14.8040031,29.4187412 Z M13.245687,7.77050912 C13.245687,7.98789073 13.3796048,8.16411334 13.5559158,8.16411334 L16.0520904,8.16411334 C16.2234251,8.16411334 16.3623192,7.98153325 16.3623192,7.77050912 C16.3623192,7.55312751 16.2284014,7.3769049 16.0520904,7.3769049 L13.5559158,7.3769049 C13.3845812,7.3769049 13.245687,7.55948498 13.245687,7.77050912 Z" id="iPhone-Vector" fill="#4A4A4A"></path>
                        <path d="M31.2327807,11.6031854 L28.9993434,11.6031854 L28.3451985,13.5807076 L27.5041552,13.5807076 L29.6441433,7.29367928 L30.6253605,7.29367928 L32.7746935,13.5807076 L31.9056153,13.5807076 L31.2327807,11.6031854 Z M29.167552,10.9688858 L31.064572,10.9688858 L30.4478069,9.15926633 C30.307633,8.74883718 30.2141837,8.37571977 30.1207345,8.01193029 L30.1020446,8.01193029 C30.0085954,8.3850477 29.9058012,8.76749305 29.7843171,9.14993839 L29.167552,10.9688858 Z M33.1017659,9.06598697 L34.8212323,13.5807076 L35.606206,13.5807076 L37.381742,9.06598697 L36.5220088,9.06598697 L35.6435857,11.6031854 C35.4940669,12.0136145 35.363238,12.3867319 35.2604438,12.7598493 L35.232409,12.7598493 C35.1389597,12.3867319 35.0174757,12.0136145 34.8679569,11.6031854 L33.9801889,9.06598697 L33.1017659,9.06598697 Z M41.5589239,13.5807076 L40.8113298,13.5807076 L40.7459153,13.0117036 L40.7178806,13.0117036 C40.4655676,13.3661651 39.9796314,13.6833149 39.3348315,13.6833149 C38.4190288,13.6833149 37.9517825,13.0396874 37.9517825,12.3867319 C37.9517825,11.2953635 38.9236548,10.6983756 40.6711559,10.7077036 L40.6711559,10.6144242 C40.6711559,10.2413068 40.5683617,9.56969548 39.6432141,9.56969548 C39.2226924,9.56969548 38.7834809,9.70028657 38.4657534,9.90550114 L38.2788549,9.3644809 C38.6526519,9.12195459 39.1946576,8.96337969 39.7646981,8.96337969 C41.1477472,8.96337969 41.4841645,9.90550114 41.4841645,10.8103109 L41.4841645,12.4986671 C41.4841645,12.8904404 41.5028543,13.2728858 41.5589239,13.5807076 Z M40.6898458,12.0602542 L40.6898458,11.2767076 C39.7927329,11.2580518 38.774136,11.4166267 38.774136,12.2934526 C38.774136,12.8251449 39.1292431,13.0769991 39.5497648,13.0769991 C40.1384951,13.0769991 40.5122922,12.7038817 40.6431212,12.3214364 C40.6711559,12.2374849 40.6898458,12.1442056 40.6898458,12.0602542 Z M43.820396,13.5807076 L43.820396,9.06598697 L42.9980425,9.06598697 L42.9980425,13.5807076 L43.820396,13.5807076 Z M43.4092192,7.28435135 C43.1101816,7.28435135 42.8952483,7.50822179 42.8952483,7.79738778 C42.8952483,8.07722584 43.1008367,8.30109629 43.3905294,8.30109629 C43.7176018,8.30109629 43.9231902,8.07722584 43.9138453,7.79738778 C43.9138453,7.50822179 43.7176018,7.28435135 43.4092192,7.28435135 Z M45.3716537,13.5807076 L46.1940072,13.5807076 L46.1940072,6.95787361 L45.3716537,6.95787361 L45.3716537,13.5807076 Z M51.015989,13.5807076 L50.2683949,13.5807076 L50.2029804,13.0117036 L50.1749457,13.0117036 C49.9226327,13.3661651 49.4366965,13.6833149 48.7918966,13.6833149 C47.8760939,13.6833149 47.4088476,13.0396874 47.4088476,12.3867319 C47.4088476,11.2953635 48.3807199,10.6983756 50.128221,10.7077036 L50.128221,10.6144242 C50.128221,10.2413068 50.0254269,9.56969548 49.1002792,9.56969548 C48.6797575,9.56969548 48.240546,9.70028657 47.9228185,9.90550114 L47.73592,9.3644809 C48.109717,9.12195459 48.6517227,8.96337969 49.2217632,8.96337969 C50.6048123,8.96337969 50.9412296,9.90550114 50.9412296,10.8103109 L50.9412296,12.4986671 C50.9412296,12.8904404 50.9599195,13.2728858 51.015989,13.5807076 Z M50.1469109,12.0602542 L50.1469109,11.2767076 C49.249798,11.2580518 48.2312011,11.4166267 48.2312011,12.2934526 C48.2312011,12.8251449 48.5863083,13.0769991 49.0068299,13.0769991 C49.5955603,13.0769991 49.9693573,12.7038817 50.1001863,12.3214364 C50.128221,12.2374849 50.1469109,12.1442056 50.1469109,12.0602542 Z M53.1279423,13.5807076 L52.4177279,13.5807076 C52.4364178,13.2728858 52.4551076,12.8158169 52.4551076,12.4147157 L52.4551076,6.95787361 L53.2681162,6.95787361 L53.2681162,9.79356592 L53.286806,9.79356592 C53.5764987,9.28985742 54.0998146,8.96337969 54.8287188,8.96337969 C55.9501099,8.96337969 56.7444286,9.89617321 56.7350837,11.2673797 C56.7350837,12.8811125 55.7164868,13.6833149 54.7072348,13.6833149 C54.05309,13.6833149 53.5297741,13.4314607 53.1933568,12.8344728 L53.165322,12.8344728 L53.1279423,13.5807076 Z M53.2681162,10.9595578 L53.2681162,11.7710882 C53.2681162,11.8736955 53.286806,11.9763028 53.3054959,12.0695821 C53.4643596,12.6385862 53.9409508,13.0303594 54.5390261,13.0303594 C55.3987593,13.0303594 55.9127302,12.3307643 55.9127302,11.2953635 C55.9127302,10.3905538 55.4454839,9.61633515 54.5670609,9.61633515 C54.0063653,9.61633515 53.4830495,9.9987805 53.3148408,10.6237522 C53.296151,10.7170315 53.2681162,10.8289667 53.2681162,10.9595578 Z M57.959269,13.5807076 L58.7816225,13.5807076 L58.7816225,6.95787361 L57.959269,6.95787361 L57.959269,13.5807076 Z M63.9867463,11.4725943 L60.8094715,11.4725943 C60.8281613,12.5826186 61.5383757,13.0396874 62.3607292,13.0396874 C62.9494595,13.0396874 63.3045667,12.9370801 63.6129493,12.806489 L63.7531231,13.3941489 C63.4634304,13.52474 62.9681494,13.673987 62.2485901,13.673987 C60.8561961,13.673987 60.0244977,12.7598493 60.0244977,11.3979708 C60.0244977,10.0360922 60.8281613,8.96337969 62.1457959,8.96337969 C63.6222942,8.96337969 64.0147811,10.2599627 64.0147811,11.0901489 C64.0147811,11.2580518 63.9960912,11.3886428 63.9867463,11.4725943 Z M60.8188164,10.8849343 L63.2204624,10.8849343 C63.2298073,10.36257 63.0055291,9.55103961 62.0803814,9.55103961 C61.248683,9.55103961 60.8842309,10.3159303 60.8188164,10.8849343 Z M69.3040092,8.96337969 C70.6029539,8.96337969 71.4813769,9.90550114 71.4813769,11.2860356 C71.4813769,12.955736 70.3226061,13.6833149 69.2292498,13.6833149 C68.0050645,13.6833149 67.061227,12.7878331 67.061227,11.360659 C67.061227,9.84953353 68.0517891,8.96337969 69.3040092,8.96337969 Z M69.2853193,9.57902341 C68.313447,9.57902341 67.8929254,10.4745052 67.8929254,11.3326752 C67.8929254,12.3214364 68.4629659,13.0676712 69.2666295,13.0676712 C70.0516033,13.0676712 70.6403336,12.3307643 70.6403336,11.3140194 C70.6403336,10.5491287 70.2571916,9.57902341 69.2853193,9.57902341 Z M72.7055623,13.5807076 L73.5279157,13.5807076 L73.5279157,10.8662785 C73.5279157,10.7263594 73.5466056,10.5864404 73.5839853,10.4838331 C73.7241592,10.0267643 74.1446809,9.64431896 74.6866866,9.64431896 C75.4623154,9.64431896 75.7333183,10.2506347 75.7333183,10.9782137 L75.7333183,13.5807076 L76.5556718,13.5807076 L76.5556718,10.8849343 C76.5556718,9.3364971 75.5837995,8.96337969 74.9576894,8.96337969 C74.2100953,8.96337969 73.6867795,9.38313677 73.4625013,9.81222179 L73.4438114,9.81222179 L73.3970868,9.06598697 L72.6681826,9.06598697 C72.6962173,9.43910438 72.7055623,9.82154973 72.7055623,10.2879465 L72.7055623,13.5807076 Z M80.4338161,7.98394649 L80.4338161,9.06598697 L79.7329466,9.06598697 L79.7329466,9.69095863 L80.4338161,9.69095863 L80.4338161,12.1535335 C80.4338161,12.6852258 80.5179204,13.0863271 80.7515435,13.3288534 C80.947787,13.5527238 81.2561695,13.673987 81.6393115,13.673987 C81.957039,13.673987 82.209352,13.6273473 82.3682157,13.5620518 L82.330836,12.946408 C82.2280418,12.9743918 82.0691781,13.0023756 81.8542448,13.0023756 C81.3963434,13.0023756 81.2374797,12.6852258 81.2374797,12.1255497 L81.2374797,9.69095863 L82.4149404,9.69095863 L82.4149404,9.06598697 L81.2374797,9.06598697 L81.2374797,7.76940398 L80.4338161,7.98394649 Z M83.5269866,13.5807076 L84.34934,13.5807076 L84.34934,10.8569505 C84.34934,10.6983756 84.358685,10.5771125 84.4054096,10.4651773 C84.5549284,10.0174364 84.9754501,9.64431896 85.5081109,9.64431896 C86.2837397,9.64431896 86.5547426,10.2599627 86.5547426,10.9875416 L86.5547426,13.5807076 L87.3770961,13.5807076 L87.3770961,10.8942623 C87.3770961,9.3364971 86.4052238,8.96337969 85.7978036,8.96337969 C85.489421,8.96337969 85.1997283,9.05665904 84.9567602,9.19657807 C84.7044472,9.3364971 84.4988589,9.54171167 84.3680299,9.77491005 L84.34934,9.77491005 L84.34934,6.95787361 L83.5269866,6.95787361 L83.5269866,13.5807076 Z M92.5354952,11.4725943 L89.3582204,11.4725943 C89.3769102,12.5826186 90.0871246,13.0396874 90.9094781,13.0396874 C91.4982084,13.0396874 91.8533156,12.9370801 92.1616982,12.806489 L92.3018721,13.3941489 C92.0121794,13.52474 91.5168983,13.673987 90.797339,13.673987 C89.404945,13.673987 88.5732466,12.7598493 88.5732466,11.3979708 C88.5732466,10.0360922 89.3769102,8.96337969 90.6945448,8.96337969 C92.1710431,8.96337969 92.56353,10.2599627 92.56353,11.0901489 C92.56353,11.2580518 92.5448401,11.3886428 92.5354952,11.4725943 Z M89.3675653,10.8849343 L91.7692113,10.8849343 C91.7785562,10.36257 91.554278,9.55103961 90.6291303,9.55103961 C89.7974319,9.55103961 89.4329798,10.3159303 89.3675653,10.8849343 Z" id="Available-on-the" fill="#4A4A4A"></path>
                        <path d="M34.8240955,23.8688811 L30.5663086,23.8688811 L29.319258,27.638796 L27.7159073,27.638796 L31.7955441,15.653312 L33.66612,15.653312 L37.7635718,27.638796 L36.1067761,27.638796 L34.8240955,23.8688811 Z M30.8869787,22.6596632 L34.5034253,22.6596632 L33.3276348,19.2098354 C33.0604097,18.4274003 32.8822596,17.7160956 32.7041095,17.0225735 L32.6684795,17.0225735 C32.4903294,17.7338782 32.2943643,18.4629655 32.0627692,19.1920528 L30.8869787,22.6596632 Z M38.7895852,31.1597542 L38.7895852,21.8416628 C38.7895852,20.7391405 38.7539552,19.8500097 38.7183252,19.0320093 L40.1257108,19.0320093 L40.1969708,20.5079665 L40.2326009,20.5079665 C40.8739411,19.4587921 41.8893966,18.8364005 43.2967823,18.8364005 C45.3811382,18.8364005 46.9488589,20.5968796 46.9488589,23.2109243 C46.9488589,26.3050997 45.0604681,27.8344048 43.0295571,27.8344048 C41.8893966,27.8344048 40.8917562,27.3364915 40.3751209,26.4829259 L40.3394909,26.4829259 L40.3394909,31.1597542 L38.7895852,31.1597542 Z M40.3394909,22.6596632 L40.3394909,24.1356204 C40.3394909,24.3667944 40.3751209,24.5801858 40.4107509,24.7757946 C40.6957911,25.8605343 41.6399865,26.6074042 42.762332,26.6074042 C44.4191278,26.6074042 45.3811382,25.2559253 45.3811382,23.2820548 C45.3811382,21.5571409 44.4725728,20.0811837 42.815777,20.0811837 C41.7468765,20.0811837 40.7492361,20.8458362 40.446381,22.019489 C40.3929359,22.2150977 40.3394909,22.4462718 40.3394909,22.6596632 Z M48.2955424,31.1597542 L48.2955424,21.8416628 C48.2955424,20.7391405 48.2599124,19.8500097 48.2242824,19.0320093 L49.631668,19.0320093 L49.7029281,20.5079665 L49.7385581,20.5079665 C50.3798984,19.4587921 51.3953538,18.8364005 52.8027395,18.8364005 C54.8870954,18.8364005 56.4548161,20.5968796 56.4548161,23.2109243 C56.4548161,26.3050997 54.5664253,27.8344048 52.5355144,27.8344048 C51.3953538,27.8344048 50.3977134,27.3364915 49.8810781,26.4829259 L49.8454481,26.4829259 L49.8454481,31.1597542 L48.2955424,31.1597542 Z M49.8454481,22.6596632 L49.8454481,24.1356204 C49.8454481,24.3667944 49.8810781,24.5801858 49.9167082,24.7757946 C50.2017483,25.8605343 51.1459437,26.6074042 52.2682892,26.6074042 C53.925085,26.6074042 54.8870954,25.2559253 54.8870954,23.2820548 C54.8870954,21.5571409 53.97853,20.0811837 52.3217343,20.0811837 C51.2528338,20.0811837 50.2551933,20.8458362 49.9523382,22.019489 C49.8988932,22.2150977 49.8454481,22.4462718 49.8454481,22.6596632 Z M60.3952337,27.0519696 C61.036574,27.4787524 62.3014396,27.8166222 63.4594151,27.8166222 C66.2920014,27.8166222 67.663757,26.2161866 67.663757,24.3667944 C67.663757,22.6063153 66.6304866,21.6282714 64.5995756,20.8458362 C62.9427799,20.205662 62.2123646,19.6544009 62.2123646,18.534096 C62.2123646,17.7160956 62.8358898,16.7380516 64.4748706,16.7380516 C65.5615861,16.7380516 66.3632614,17.093704 66.7551916,17.3070954 L67.1827518,16.0445296 C66.6483016,15.7422251 65.7575512,15.4577032 64.5283156,15.4577032 C62.1945495,15.4577032 60.6446438,16.8447473 60.6446438,18.7119222 C60.6446438,20.4012708 61.8560644,21.41488 63.8157153,22.108402 C65.436881,22.7307936 66.0782213,23.3709679 66.0782213,24.4912727 C66.0782213,25.7004907 65.1518409,26.5362737 63.5663052,26.5362737 C62.4974047,26.5362737 61.4819492,26.1806214 60.7871639,25.7538386 L60.3952337,27.0519696 Z M69.4023707,16.9692257 L69.4023707,19.0320093 L68.0662451,19.0320093 L68.0662451,20.2234446 L69.4023707,20.2234446 L69.4023707,24.9180556 C69.4023707,25.9316647 69.5627058,26.6963173 70.008081,27.1586653 C70.3821962,27.5854481 70.9700914,27.8166222 71.7005068,27.8166222 C72.3062171,27.8166222 72.7872223,27.7277091 73.0900774,27.6032308 L73.0188174,26.429578 C72.8228523,26.4829259 72.5199971,26.5362737 72.110252,26.5362737 C71.2373166,26.5362737 70.9344614,25.9316647 70.9344614,24.8647077 L70.9344614,20.2234446 L73.1791525,20.2234446 L73.1791525,19.0320093 L70.9344614,19.0320093 L70.9344614,16.5602255 L69.4023707,16.9692257 Z M77.8572425,18.8364005 C80.3335286,18.8364005 82.0081394,20.6324448 82.0081394,23.2642722 C82.0081394,26.4473606 79.7990784,27.8344048 77.7147224,27.8344048 C75.3809563,27.8344048 73.5816405,26.1272735 73.5816405,23.4065331 C73.5816405,20.5257491 75.4700314,18.8364005 77.8572425,18.8364005 Z M77.8216125,20.0100532 C75.9688516,20.0100532 75.1671762,21.7171845 75.1671762,23.3531852 C75.1671762,25.2381427 76.2538917,26.660752 77.7859824,26.660752 C79.2824431,26.660752 80.4047886,25.2559253 80.4047886,23.31762 C80.4047886,21.8594454 79.6743733,20.0100532 77.8216125,20.0100532 Z M83.3548229,27.638796 L84.9047286,27.638796 L84.9047286,23.0508807 C84.9047286,22.7841415 84.9403586,22.5351849 84.9759886,22.3217934 C85.1897687,21.1481407 85.9736291,20.3123577 87.0781596,20.3123577 C87.2919397,20.3123577 87.4522747,20.3301403 87.6126098,20.3657056 L87.6126098,18.8897483 C87.4700898,18.8541831 87.3453847,18.8364005 87.1672346,18.8364005 C86.1161491,18.8364005 85.1719537,19.5654878 84.7800235,20.7213579 L84.7087635,20.7213579 L84.6553185,19.0320093 L83.2835628,19.0320093 C83.3370079,19.832227 83.3548229,20.7035753 83.3548229,21.7171845 L83.3548229,27.638796 Z M95.3014362,23.6199245 L89.2443335,23.6199245 C89.2799635,25.7360559 90.6339041,26.6074042 92.2016248,26.6074042 C93.3239703,26.6074042 94.0009406,26.4117954 94.5888359,26.1628388 L94.856061,27.2831436 C94.3037958,27.5321003 93.3596003,27.8166222 91.9878447,27.8166222 C89.3334085,27.8166222 87.7478728,26.0739257 87.7478728,23.4776636 C87.7478728,20.8814015 89.2799635,18.8364005 91.7918796,18.8364005 C94.6066509,18.8364005 95.3548812,21.3081843 95.3548812,22.8908372 C95.3548812,23.2109243 95.3192512,23.4598809 95.3014362,23.6199245 Z M89.2621485,22.4996196 L93.8406056,22.4996196 C93.8584206,21.5037931 93.4308604,19.9567054 91.6671746,19.9567054 C90.0816388,19.9567054 89.3868535,21.41488 89.2621485,22.4996196 Z" id="App-Store" fill="#4A4A4A"></path>
                    </g>
                </g>
            </g>
        </g>
    </g>
</svg>