<?xml version="1.0" encoding="UTF-8"?>
<svg width="113px" height="38px" viewBox="0 0 113 38" version="1.1" xmlns="http://www.w3.org/2000/svg" xmlns:xlink="http://www.w3.org/1999/xlink">
    <!-- Generator: Sketch 46 (44423) - http://www.bohemiancoding.com/sketch -->
    <title>Group 9</title>
    <desc>Created with Sketch.</desc>
    <defs>
        <rect id="path-1" x="0" y="0" width="110.416472" height="36" rx="1.68421053"></rect>
    </defs>
    <g id="V5---Mobile" stroke="none" stroke-width="1" fill="none" fill-rule="evenodd">
        <g id="Desktop-HD-Copy-3" transform="translate(-1259.000000, -734.000000)">
            <g id="Group-10" transform="translate(1132.000000, 692.000000)">
                <g id="Group-18" transform="translate(0.000000, 43.000000)">
                    <g id="Group-9" transform="translate(128.000000, 0.000000)">
                        <g id="Rectangle-3">
                            <use fill="#FFFFFF" fill-rule="evenodd" xlink:href="#path-1"></use>
                            <rect stroke="#4A4A4A" stroke-width="0.842105263" x="-0.421052632" y="-0.421052632" width="111.258577" height="36.8421053" rx="1.68421053"></rect>
                        </g>
                        <path d="M5.92665744,11.5271122 C5.91912226,11.569346 5.91516815,11.6149378 5.91516815,11.663738 L5.91516815,29.8341607 C5.91516815,30.0465241 6.01081269,30.1929996 6.16129244,30.2465008 L15.8377295,21.0230966 L5.92673204,11.5271122 L5.92665744,11.5271122 Z M6.28379504,11.1387991 C6.43688598,11.1068626 6.62198279,11.1411123 6.80745262,11.2437869 C7.25396788,11.4912954 14.8566642,15.704238 14.8566642,15.704238 L19.0059362,18.0030003 L16.2197854,20.658736 L6.28372043,11.1387991 L6.28379504,11.1387991 Z M18.5125685,23.5860073 L16.4556887,24.7252031 L14.8566642,25.6108463 C14.8566642,25.6108463 9.3994793,28.6352704 7.36199697,29.7643927 L16.2082215,21.3781299 L18.5126432,23.5860073 L18.5125685,23.5860073 Z M18.9957152,23.3184265 L19.0291386,23.2999212 C19.0291386,23.2999212 22.5693294,21.3376122 23.04039,21.0774932 C23.5107045,20.8166281 23.4653442,20.4590578 23.0685909,20.2531862 C22.7586787,20.0932794 20.4767135,18.8228303 19.486024,18.2706557 L16.5913965,21.014814 L18.9957152,23.3184265 Z" id="Shape" fill="#4A4A4A"></path>
                        <path d="M76.3784027,24.3359267 L75.6217514,25.0542759 C75.4468756,25.1509811 75.2729696,25.2632068 75.0995113,25.3429737 C74.5739886,25.583095 74.0395132,25.6434611 73.5645732,25.6434611 C73.059194,25.6434611 72.2668812,25.6104799 71.4586774,25.0222647 C70.3358612,24.2265364 69.8450302,22.8586359 69.8450302,21.6666851 C69.8450302,19.198838 71.8417032,17.9885311 73.4704207,17.9885311 C74.0395878,17.9885311 74.6241983,18.1319472 75.0995859,18.4343001 C75.8900336,18.960209 76.0944533,19.6437116 76.207854,20.0097137 L72.4887586,21.5214781 L71.2707456,21.6167655 C71.6650368,23.6402614 73.0255468,24.8171393 74.5290014,24.8171393 C75.2800572,24.8171393 75.8374366,24.5704516 76.3489334,24.3162275 C76.3489334,24.3162275 76.4515909,24.2624278 76.3784773,24.3360013 L76.3784027,24.3359267 Z M74.1059869,20.276623 C74.4044844,20.1655165 74.5597389,20.0695575 74.5597389,19.8463745 C74.5597389,19.2062998 73.8529243,18.4669082 73.0093574,18.4669082 C72.384609,18.4669082 71.2115086,18.9655069 71.2115086,20.6968726 C71.2115086,20.967065 71.2429922,21.2547927 71.2588086,21.5425951 L74.1059869,20.276623 L74.1059869,20.276623 Z M68.6167961,24.2493696 C68.6167961,24.8662381 68.7261681,24.9621971 69.2443795,25.0106989 C69.5144522,25.0427101 69.7836296,25.0568129 70.0499721,25.0888241 L69.4667791,25.4384103 L66.6878651,25.4384103 C67.0523141,24.9621971 67.1149829,24.9147399 67.1149829,24.597538 L67.1149829,24.2432509 L67.1089398,14.8024839 L65.8818249,14.8024839 L67.0631319,14.2293417 L69.3182391,14.2293417 C68.829497,14.5144577 68.6831952,14.6880943 68.620601,15.2437759 L68.6168707,24.249295 L68.6167961,24.2493696 Z M64.3053313,18.7675449 C64.6668706,19.0672115 65.4212091,19.7033315 65.4212091,20.909609 C65.4212091,22.0852931 64.7638581,22.6394823 64.1009862,23.1640481 C63.897611,23.3705913 63.6596934,23.5945204 63.6596934,23.9408234 C63.6596934,24.2922751 63.897611,24.4827753 64.0688312,24.6248483 L64.6375506,25.067558 C65.3289218,25.6561462 65.959191,26.1957103 65.959191,27.291926 C65.959191,28.785185 64.526015,30.2911292 61.8179018,30.2911292 C59.536608,30.2911292 58.4337862,29.1954358 58.4337862,28.0206471 C58.4337862,27.4489972 58.7160196,26.63939 59.6471737,26.0846784 C60.6230912,25.4829574 61.9452538,25.402519 62.6534113,25.3554349 C62.43228,25.0674833 62.1798888,24.7659513 62.1798888,24.2738444 C62.1798888,24.0047712 62.2601646,23.8443421 62.3376053,23.655185 C62.1654899,23.6716756 61.9918824,23.688614 61.8342405,23.688614 C60.1645644,23.688614 59.220802,22.4324915 59.220802,21.1946505 C59.220802,20.4645116 59.5510815,19.654382 60.2293968,19.0672115 C61.1269782,18.3219997 62.1971973,18.1935818 63.047628,18.1935818 L66.2917833,18.1935818 L65.2831885,18.7675449 L64.3054059,18.7675449 L64.3053313,18.7675449 Z M63.1977347,25.7973984 C63.0674731,25.7801616 62.9893609,25.7801616 62.8323159,25.7801616 C62.6884014,25.7801616 61.8310324,25.8117997 61.1670415,26.0387882 C60.8157231,26.1695193 59.8003392,26.5560415 59.8003392,27.7041168 C59.8003392,28.8498044 60.8965957,29.6759769 62.5924585,29.6759769 C64.1162058,29.6759769 64.9250811,28.9321828 64.9250811,27.9306576 C64.9250811,27.1063505 64.4016473,26.6714758 63.1976601,25.7973984 L63.1977347,25.7973984 Z M63.6429071,22.7396945 C64.0052671,22.3743639 64.0368253,21.8696465 64.0368253,21.5831127 C64.0368253,20.4448124 63.3647023,18.671959 62.0617133,18.671959 C61.6552614,18.671959 61.2148638,18.8778305 60.9650092,19.1963009 C60.6997858,19.5260387 60.6203307,19.9537501 60.6203307,20.3650455 C60.6203307,21.4249968 61.2325453,23.1828519 62.5791787,23.1828519 C62.972127,23.1828519 63.394843,22.9901132 63.6429071,22.7396199 L63.6429071,22.7396945 Z M54.4935594,25.6434611 C51.9858372,25.6434611 50.6440533,23.6647361 50.6440533,21.873079 C50.6440533,19.7796659 52.3308141,17.9885311 54.7301342,17.9885311 C57.049477,17.9885311 58.5020504,19.8284662 58.5020504,21.7603309 C58.5020504,23.6472009 57.0663379,25.6434611 54.4935594,25.6434611 L54.4935594,25.6434611 Z M56.4547201,24.349358 C56.8375221,23.8362833 56.9304062,23.1959101 56.9304062,22.5716544 C56.9304062,21.1597292 56.2661169,18.4669828 54.3028672,18.4669828 C53.7807017,18.4669828 53.2548806,18.6736752 52.8758089,19.0109494 C52.2574767,19.5720035 52.147284,20.2769961 52.147284,20.9687066 C52.147284,22.5526268 52.9204231,25.1650093 54.8390586,25.1650093 C55.4582861,25.1650093 56.0901966,24.8614625 56.4547201,24.3492833 L56.4547201,24.349358 Z M46.0886277,25.6434611 C43.5793388,25.6434611 42.2393454,23.6647361 42.2393454,21.873079 C42.2393454,19.7796659 43.9272999,17.9885311 46.3266946,17.9885311 C48.6455897,17.9885311 50.0973425,19.8284662 50.0973425,21.7603309 C50.0973425,23.6472009 48.6628983,25.6434611 46.0886277,25.6434611 L46.0886277,25.6434611 Z M48.0507583,24.349358 C48.4309491,23.8362833 48.5257729,23.1959101 48.5257729,22.5716544 C48.5257729,21.1597292 47.85932,18.4669828 45.8969656,18.4669828 C45.3727112,18.4669828 44.8521871,18.6736752 44.4719963,19.0109494 C43.8524704,19.5720035 43.7426507,20.2769961 43.7426507,20.9687066 C43.7426507,22.5526268 44.5194455,25.1650093 46.4357682,25.1650093 C47.0538766,25.1650093 47.6851902,24.8614625 48.0508329,24.3492833 L48.0507583,24.349358 Z M41.1989686,25.1705311 L39.074869,25.6601756 C38.2142173,25.7968015 37.4413766,25.9168621 36.6230264,25.9168621 C32.5259785,25.9168621 30.9647791,22.8809468 30.9647791,20.50488 C30.9647791,17.6032028 33.1766896,14.9128442 36.9647953,14.9128442 C37.7662846,14.9128442 38.5372601,15.0314871 39.2395984,15.2243005 C40.352865,15.5391146 40.8735384,15.9271292 41.198894,16.1544908 L39.9649899,17.3342788 L39.4447642,17.451504 L39.8157038,16.856424 C39.3133089,16.3625263 38.3897646,15.4507667 36.6370523,15.4507667 C34.2936865,15.4507667 32.5259039,17.2440655 32.5259039,19.862119 C32.5259039,22.6739559 34.5443618,25.3189466 37.781728,25.3189466 C38.7329509,25.3189466 39.2226629,25.1265809 39.667313,24.946975 L39.667313,22.5364346 L37.4243665,22.657913 L38.6132088,22.0150774 L41.7608989,22.0150774 L41.3758587,22.3880191 C41.2720822,22.4768893 41.2579817,22.5071097 41.2288855,22.6262749 C41.2133675,22.7623785 41.1988193,23.1953878 41.1988193,23.3475343 L41.1988193,25.1706057 L41.1989686,25.1705311 Z M80.9623276,24.4091271 L80.9623276,28.4457469 L80.1627034,28.4457469 L80.1627034,18.1740319 L80.9623276,18.1740319 L80.9623276,19.3438957 C81.4832247,18.5877897 82.4351192,17.9884564 83.5406268,17.9884564 C85.5235724,17.9884564 86.8590894,19.4964899 86.8590894,21.8837494 C86.8590894,24.2550406 85.5235724,25.7944883 83.5406268,25.7944883 C82.4969673,25.7944883 81.5619338,25.2548496 80.9623276,24.4090525 L80.9623276,24.4091271 Z M86.0390979,21.945384 C86.0390979,20.1271628 85.1001103,18.7403839 83.4351343,18.7403839 C82.4011736,18.7403839 81.4123493,19.5605123 80.9826203,20.2757276 L80.9826203,23.5984006 C81.4123493,24.3150336 82.4011736,25.1650839 83.4351343,25.1650839 C85.1001103,25.1650839 86.0390979,23.7664407 86.0390979,21.945384 Z M87.9523617,15.3230204 L88.7723532,15.3230204 L88.7723532,25.6435357 L87.9523617,25.6435357 L87.9523617,15.3230204 L87.9523617,15.3230204 Z M97.6869167,27.7350087 C97.857913,27.811567 98.1497706,27.8585764 98.3347928,27.8585764 C98.8239079,27.8585764 99.164483,27.6580028 99.4703665,26.9495777 L100.053634,25.6244335 L96.9036312,18.1253062 L97.7956172,18.1253062 L100.497762,24.6238783 L103.17372,18.1253062 L104.078314,18.1253062 L100.236343,27.1981309 C99.8376505,28.1329475 99.2103655,28.582522 98.3488932,28.582522 C98.0903098,28.582522 97.7492124,28.5364826 97.5496421,28.4749226 L97.6869167,27.7350833 L97.6869167,27.7350087 Z M95.4302427,25.633313 C95.3765266,25.3740148 95.3360157,25.1454593 95.3063226,24.9546607 C95.2818519,24.7643097 95.2676768,24.5697801 95.2676768,24.3718927 C94.9920833,24.7775917 94.6015223,25.115239 94.1025592,25.3811782 C93.6031485,25.6489828 93.1287307,25.7802362 92.4780942,25.7802362 C91.6945849,25.7802362 91.0863244,25.5870497 90.6524175,25.1950804 C90.2199281,24.8035588 90.0022286,24.2731728 90.0022286,23.6020569 C90.0022286,22.931911 90.3174378,22.3877952 90.9459164,21.9717242 C91.574395,21.5537878 92.3866276,21.3459761 93.3920889,21.3459761 L95.2676768,21.3459761 L95.2676768,20.4169798 C95.2676768,19.8818928 95.0857881,19.4611209 94.7225328,19.1560071 C94.35786,18.8504457 93.846214,18.695986 93.1828199,18.695986 C92.5764991,18.695986 92.0846236,18.8371636 91.7100282,19.112057 C91.3387902,19.3926214 91.1517536,19.7401929 91.1517536,20.1590993 L90.3287033,20.1590993 L90.3117678,20.1189548 C90.2820747,19.5540951 90.5397629,19.058705 91.0877419,18.6307697 C91.6333336,18.2033568 92.3480564,17.9884564 93.2276579,17.9884564 C94.1044244,17.9884564 94.8139994,18.2000736 95.3486986,18.6222633 C95.8829502,19.0401997 96.1510832,19.6443085 96.1510832,20.4339181 L96.1510832,24.1224441 C96.1510832,24.3874132 96.1638408,24.6433536 96.1968165,24.8927276 C96.2307621,25.1425492 96.2849259,25.3919232 96.356995,25.6332384 L95.4302427,25.6332384 L95.4302427,25.633313 Z M92.5748578,25.0967337 C93.2574256,25.0967337 93.7479582,24.9429456 94.2492341,24.6386527 C94.7473019,24.3362252 95.0862357,23.9417935 95.2636481,23.4642371 L95.2636481,22.0211215 L93.3806742,22.0211215 C92.6614004,22.0211215 92.0658976,22.1815505 91.5975228,22.5053188 C91.1281782,22.8281171 90.8904844,23.2188179 90.8904844,23.6730934 C90.8904844,24.1017748 91.0411133,24.4444961 91.3405061,24.7041674 C91.6408687,24.9666742 92.0513494,25.0967337 92.5747832,25.0967337 L92.5748578,25.0967337 Z M30.9649283,8.37270982 C30.9649283,6.90049309 32.1402669,5.95351375 33.601793,5.95351375 C34.5812916,5.95351375 35.2219309,6.38846313 35.6210716,6.92108771 L34.9056027,7.30701295 C34.6344855,6.95615825 34.1595454,6.68327956 33.601793,6.68327956 C32.6076718,6.68327956 31.8691497,7.38409353 31.8691497,8.37278444 C31.8691497,9.3469248 32.6076718,10.0622893 33.601793,10.0622893 C34.114409,10.0622893 34.5662212,9.84500116 34.792202,9.64181585 L34.792202,8.91951185 L33.2854648,8.91951185 L33.2854648,8.19720785 L35.6662826,8.19720785 L35.6662826,9.94319869 C35.1767199,10.4552287 34.4683385,10.7986961 33.601793,10.7986961 C32.1402669,10.7986961 30.9649283,9.83850938 30.9649283,8.37285905 L30.9649283,8.37270982 Z M36.8059597,10.7272865 L36.8059597,6.02477411 L40.2963885,6.02477411 L40.2963885,6.75148058 L37.6997363,6.75148058 L37.6997363,7.96357833 L40.2429708,7.96357833 L40.2429708,8.68983709 L37.6997363,8.68983709 L37.6997363,10.0010278 L40.2963885,10.0010278 L40.2963885,10.7272865 L36.8059597,10.7272865 Z M42.6700442,10.7272865 L42.6700442,6.75148058 L41.1511463,6.75148058 L41.1511463,6.02477411 L45.0689167,6.02477411 L45.0689167,6.75148058 L43.5500188,6.75148058 L43.5500188,10.7272865 L42.6700442,10.7272865 Z M48.2031778,6.02477411 L49.0579356,6.02477411 L49.0579356,10.7272865 L48.2031778,10.7272865 L48.2031778,6.02477411 Z M51.503362,10.7272865 L51.503362,6.75148058 L49.9840164,6.75148058 L49.9840164,6.02477411 L53.9017868,6.02477411 L53.9017868,6.75148058 L52.3833365,6.75148058 L52.3833365,10.7272865 L51.503362,10.7272865 L51.503362,10.7272865 Z M56.8223025,8.37621687 C56.8223025,6.97861833 57.897371,5.95351375 59.4225358,5.95351375 C60.939121,5.95351375 62.0223215,6.97869295 62.0223215,8.37621687 C62.0223215,9.77336771 60.9391956,10.7985469 59.4225358,10.7985469 C57.897371,10.7985469 56.8223025,9.77336771 56.8223025,8.37621687 Z M61.0962407,8.34040015 C61.0962407,7.38140727 60.4375467,6.66604276 59.4225358,6.66604276 C58.3999152,6.66604276 57.7483088,7.38148189 57.7483088,8.34040015 C57.7483088,9.29200582 58.3999152,10.0147575 59.4225358,10.0147575 C60.4375467,10.0147575 61.0962407,9.2919312 61.0962407,8.34040015 Z M66.5150783,10.7272865 L63.8986555,7.36454356 L63.8986555,10.7272865 L63.0195016,10.7272865 L63.0195016,6.02477411 L63.9217087,6.02477411 L66.4850121,9.28223084 L66.4850121,6.02477411 L67.3646882,6.02477411 L67.3646882,10.7272865 L66.5150783,10.7272865 L66.5150783,10.7272865 Z" id="Shape" fill="#4A4A4A"></path>
                    </g>
                </g>
            </g>
        </g>
    </g>
</svg>