<?xml version="1.0" encoding="UTF-8"?>
<svg width="30px" height="30px" viewBox="0 0 30 30" version="1.1" xmlns="http://www.w3.org/2000/svg" xmlns:xlink="http://www.w3.org/1999/xlink">
    <!-- Generator: Sketch 46.2 (44496) - http://www.bohemiancoding.com/sketch -->
    <title>Artboard 3 Copy 5</title>
    <desc>Created with Sketch.</desc>
    <defs></defs>
    <g id="V5---Mobile" stroke="none" stroke-width="1" fill="none" fill-rule="evenodd">
        <g id="Artboard-3-Copy-5">
            <g id="Group" transform="translate(29.000000, 2.000000)" fill="#474746">
                <path d="M391.913238,86.9162965 C413.56426,73.884584 452.872195,49.1793027 451.547431,42.345816 C449.720926,32.9326908 410.455759,35.3256107 410.455759,35.3256107 C410.455759,35.3256107 419.442248,7.59632115 411.301731,0.4572 C405.080556,-4.99832361 369.277509,39.7588756 352.741952,61.1658078 C316.794954,42.4636887 273.695275,31.5620296 227.347316,31.5620296 C101.787866,31.5620296 0.000104312115,111.49536 0.000104312115,210.095344 C0.000104312115,212.277553 0.0845971253,214.486884 0.214987269,216.708732 C1.06095852,234.951878 5.38469569,252.484658 12.6938456,268.929463 C56.3067409,380.09697 198.895143,507.044814 227.347316,507.044814 C255.795316,507.044814 398.387891,380.09697 441.996614,268.929463 C449.305763,252.484658 453.63263,234.951878 454.478601,216.708732 C454.608991,214.486884 454.694527,212.277553 454.694527,210.095344 C454.694527,162.334999 430.811225,118.953676 391.913238,86.9162965" id="Fill-1"></path>
            </g>
            <g id="Group" transform="translate(3.000000, 1.000000)">
                <path d="M21.7205456,4.79968263 C22.9204851,4.08004601 25.099003,2.71577212 25.0255821,2.33841364 C24.9243539,1.81860248 22.7482062,1.95074419 22.7482062,1.95074419 C22.7482062,1.95074419 23.2462539,0.419478659 22.7950915,0.0252424448 C22.4503026,-0.276022225 20.466032,2.19555774 19.5496011,3.37769035 C17.5573524,2.3449228 15.168689,1.74291189 12.6,1.74291189 C5.6412647,1.74291189 0,6.15698654 0,11.6018702 C0,11.7223761 0.00468274688,11.8443796 0.0119092081,11.9670744 C0.0587944886,12.9744966 0.298423943,13.942691 0.703510454,14.8508052 C3.12061721,20.9896921 11.0231283,28 12.6,28 C14.1766404,28 22.0793828,20.9896921 24.4962583,14.8508052 C24.9013448,13.942691 25.1411477,12.9744966 25.188033,11.9670744 C25.1952594,11.8443796 25.2,11.7223761 25.2,11.6018702 C25.2,8.96445069 23.8763435,6.56884933 21.7205456,4.79968263" id="Fill-1" fill="#474746"></path>
                <path d="M17.3987376,6.22222222 L7.96849842,6.22222222 C2.57625486,6.22222222 2.15704425,8.42313872 2.15704425,9.09763276 L2.15704425,10.0866511 L1.55555556,10.0866511 L1.55555556,12.7620205 L2.15704425,12.7620205 L2.15704425,14.1792927 C2.15704425,15.67337 3.62784581,16.4228143 7.46588616,16.8 L20.2222222,6.48886648 C19.4787943,6.32360501 18.5534939,6.22222222 17.3987376,6.22222222" id="Fill-1" fill="#C4C4C4"></path>
                <path d="M23.6444444,10.0730421 L23.0498014,10.0730421 L23.0498014,9.09978613 C23.0498014,8.57856808 22.7924058,7.12994806 20.092419,6.53333333 L7.46666667,16.6783501 C7.8829053,16.7190142 8.3262201,16.7555148 8.79999559,16.7877381 C8.83877416,16.792985 8.87680699,16.796464 8.91644603,16.7973765 L8.98023564,16.7976617 L9.15554232,16.7850575 C9.5074177,16.7464467 9.84059218,16.6010714 10.1187539,16.3656421 L12.6312726,13.6854099 L14.9544303,16.1732152 L15.0778793,16.3015949 C15.3877637,16.5937713 15.7803107,16.7672064 16.1866826,16.7941257 L16.3038787,16.8 C16.3674962,16.8 16.4294502,16.794753 16.4820537,16.7871107 C21.2692569,16.4568938 23.0498014,15.7275079 23.0498014,14.0998635 L23.0498014,12.7053101 L23.6444444,12.7053101 L23.6444444,10.0730421 Z" id="Fill-4" fill="#A1A1A1"></path>
            </g>
        </g>
    </g>
</svg>