<?xml version="1.0" encoding="UTF-8"?>
<svg width="500px" height="500px" viewBox="0 0 500 500" version="1.1" xmlns="http://www.w3.org/2000/svg" xmlns:xlink="http://www.w3.org/1999/xlink">
    <!-- Generator: Sketch 45.1 (43504) - http://www.bohemiancoding.com/sketch -->
    <title>Artboard 3</title>
    <desc>Created with Sketch.</desc>
    <defs>
        <polygon id="path-1" points="0 91.2405128 0 0 311.69391 0 311.69391 182.481026 0 182.481026 0 91.2405128"></polygon>
        <polygon id="path-3" points="272.433627 184.615385 0.783253205 184.615385 0.783253205 4.60102564 272.433627 4.60102564 272.433627 184.615385"></polygon>
    </defs>
    <g id="V5---Mobile" stroke="none" stroke-width="1" fill="none" fill-rule="evenodd">
        <g id="Artboard-3">
            <g id="Group-5" transform="translate(32.000000, 0.000000)">
                <g id="Page-1" transform="translate(0.000000, 30.769231)" fill="#474746">
                    <path d="M435.898243,171.153212 C435.898243,76.6287464 338.317759,-0.000633903133 217.949525,-0.000633903133 C97.5812915,-0.000633903133 0.000807217475,76.6287464 0.000807217475,171.153212 C0.000807217475,173.245093 0.0815289649,175.362329 0.206647673,177.492244 C1.01790123,194.981631 5.16296296,211.789573 12.1696106,227.554744 C53.9794397,334.126538 190.673647,455.826432 217.949525,455.826432 C245.221368,455.826432 381.919611,334.126538 423.725404,227.554744 C430.732051,211.789573 434.881149,194.981631 435.692403,177.492244 C435.817521,175.362329 435.898243,173.245093 435.898243,171.153212 Z" id="Fill-1"></path>
                </g>
                <g id="Group-4" transform="translate(25.946276, 107.692308)">
                    <rect id="Rectangle-4" fill="#9B9B9B" x="0" y="66.6666667" width="10.3785104" height="46.1538462"></rect>
                    <rect id="Rectangle-4-Copy" fill="#9B9B9B" x="373.626374" y="66.6666667" width="10.3785104" height="46.1538462"></rect>
                    <g id="Page-1" transform="translate(10.378510, 0.000000)" opacity="0.528419384">
                        <g id="Group-3">
                            <mask id="mask-2" fill="white">
                                <use xlink:href="#path-1"></use>
                            </mask>
                            <g id="Clip-2"></g>
                            <path d="M262.977831,-0.00102564103 L100.270032,-0.00102564103 C7.23317308,-0.00102564103 0,37.9682051 0,49.6041026 L0,137.270769 C0,163.045128 25.3774038,175.973333 91.5974893,182.481026 L311.69391,4.59897436 C298.86672,1.74769231 282.901976,-0.00102564103 262.977831,-0.00102564103" id="Fill-1" fill="#DEDEDE" mask="url(#mask-2)"></path>
                        </g>
                        <g id="Group-6" transform="translate(90.811966, 0.000000)">
                            <mask id="mask-4" fill="white">
                                <use xlink:href="#path-3"></use>
                            </mask>
                            <g id="Clip-5"></g>
                            <path d="M0.783253205,182.483077 C8.03912927,183.195897 15.7672276,183.836923 24.0265759,184.401026 C24.703125,184.493333 25.3660524,184.554872 26.0562233,184.570256 L27.1686699,184.575385 L30.2244925,184.354872 C36.3588408,183.677949 42.166266,181.129231 47.015625,177.001026 L90.8142361,130.006154 L131.311832,173.626667 L133.464076,175.877949 C138.867388,181.001026 145.710069,184.042051 152.793403,184.513846 L154.836672,184.61641 C155.944578,184.61641 157.02524,184.524103 157.942441,184.390769 C241.394097,178.601026 272.433627,165.811282 272.433627,137.272821 L272.433627,49.6010256 C272.433627,40.4625641 267.947516,15.0625641 220.879674,4.60102564 L0.783253205,182.483077 Z" id="Fill-4" fill="#9B9B9B" mask="url(#mask-4)"></path>
                        </g>
                    </g>
                </g>
                <path d="M330.136996,69.6813464 C330.136996,69.6813464 386.496293,-5.89389365 394.299735,0.950252657 C402.103177,7.79439896 393.489558,34.3772049 393.489558,34.3772049 C393.489558,34.3772049 431.130982,32.0823927 432.88168,41.1069555 C434.632378,50.1315182 362.445544,91.6774603 362.445544,91.6774603 L330.136996,69.6813464 Z" id="Path-2" fill="#474746"></path>
            </g>
        </g>
    </g>
</svg>