<svg width="100" height="100" viewBox="0 0 100 100" xmlns="http://www.w3.org/2000/svg" xmlns:xlink="http://www.w3.org/1999/xlink">
  <path fill="#F9C900" d="M50.578 35.06c8.63.007 15.623 7.007 15.616 15.637-.007 8.63-7.01 15.62-15.64 15.612C41.92 66.3 34.93 59.3 34.936 50.67c.007-8.63 7.01-15.62 15.64-15.612M46.85 71.525c0 .187-.023.378-.075.567l-2.593 9.647c-.314 1.167-1.516 1.86-2.684 1.547-1.17-.314-1.863-1.515-1.547-2.686l2.594-9.645c.314-1.168 1.516-1.86 2.684-1.546.98.26 1.623 1.147 1.623 2.115M35.994 67.564c0 .59-.238 1.18-.705 1.61l-7.35 6.768c-.89.82-2.276.764-3.095-.127-.82-.887-.765-2.274.125-3.095l7.347-6.77c.89-.818 2.277-.76 3.096.128.39.423.58.954.58 1.486M30.056 56.928c0 .975-.656 1.863-1.642 2.12l-9.674 2.498c-1.173.302-2.368-.4-2.67-1.573-.303-1.17.4-2.366 1.573-2.668l9.673-2.502c1.17-.302 2.366.403 2.67 1.574.048.184.07.37.07.55M30.364 44.656c0 .18-.022.363-.07.545-.302 1.174-1.497 1.88-2.668 1.577l-9.675-2.49c-1.172-.3-1.878-1.496-1.575-2.666.3-1.172 1.496-1.877 2.67-1.575l9.674 2.49c.987.254 1.644 1.144 1.644 2.12M35.94 33.99c0 .547-.204 1.096-.616 1.52-.842.87-2.23.894-3.1.05l-7.177-6.947c-.868-.84-.892-2.23-.05-3.097.843-.87 2.23-.893 3.1-.052l7.176 6.95c.445.43.667 1 .667 1.575M46.12 27.9c0 .978-.663 1.87-1.656 2.12-1.173.295-2.364-.417-2.66-1.59l-2.442-9.686c-.296-1.175.417-2.363 1.59-2.66 1.173-.295 2.363.417 2.66 1.59l2.44 9.686c.046.18.068.36.068.54M60.79 18.926c0 .185-.025.372-.074.557l-2.54 9.66c-.307 1.17-1.505 1.87-2.676 1.56-1.17-.306-1.87-1.505-1.562-2.673l2.54-9.66c.307-1.17 1.506-1.87 2.677-1.562.984.258 1.634 1.146 1.634 2.118M76.678 27.267c0 .612-.256 1.22-.752 1.65l-7.54 6.56c-.912.79-2.296.695-3.09-.217-.795-.912-.7-2.296.215-3.09l7.538-6.556c.914-.795 2.297-.7 3.09.213.364.416.54.93.54 1.44M84.447 41.886c0 .962-.64 1.843-1.61 2.11L73.2 46.64c-1.166.32-2.373-.368-2.693-1.534-.32-1.168.367-2.372 1.533-2.692l9.636-2.644c1.166-.318 2.373.367 2.693 1.533.053.196.077.392.077.583M84.282 58.965c0 .18-.023.363-.07.545-.302 1.173-1.497 1.878-2.668 1.576l-9.676-2.49c-1.173-.3-1.878-1.496-1.576-2.666.3-1.173 1.496-1.878 2.67-1.575l9.675 2.49c.988.253 1.645 1.143 1.645 2.12M76.1 74.006c0 .568-.22 1.137-.66 1.565-.866.846-2.252.83-3.098-.035l-6.985-7.14c-.846-.866-.832-2.253.034-3.098.866-.846 2.253-.83 3.1.033l6.984 7.143c.418.427.625.98.625 1.533M61.014 82.085c0 .965-.645 1.85-1.623 2.11-1.167.317-2.37-.375-2.683-1.543l-2.6-9.644c-.316-1.168.377-2.372 1.545-2.686 1.17-.316 2.37.376 2.687 1.545l2.598 9.646c.052.19.076.383.076.572"/>
</svg>
