<?xml version="1.0" encoding="UTF-8"?>
<svg width="100px" height="100px" viewBox="0 0 100 100" version="1.1" xmlns="http://www.w3.org/2000/svg" xmlns:xlink="http://www.w3.org/1999/xlink">
    <!-- Generator: Sketch 42 (36781) - http://www.bohemiancoding.com/sketch -->
    <title>cloudy</title>
    <desc>Created with Sketch.</desc>
    <defs>
        <rect id="path-1" x="0" y="0" width="100" height="100"></rect>
        <mask id="mask-2" maskContentUnits="userSpaceOnUse" maskUnits="objectBoundingBox" x="0" y="0" width="100" height="100" fill="white">
            <use xlink:href="#path-1"></use>
        </mask>
    </defs>
    <g id="Weather-Icons-" stroke="none" stroke-width="1" fill="none" fill-rule="evenodd">
        <g id="Weather-Assets-Flat" transform="translate(-1037.000000, -270.000000)">
            <g id="Day-Time-icons-White" transform="translate(23.000000, 136.000000)">
                <g id="cloudy" transform="translate(1014.000000, 134.000000)">
                    <use id="Rectangle-1" stroke="#2B2B2B" mask="url(#mask-2)" stroke-width="2" opacity="0.0229127799" xlink:href="#path-1"></use>
                    <g id="Page-1" transform="translate(0.000000, 22.000000)">
                        <path d="M88.6200783,20.0380345 C94.5569986,20.0380345 99.3869305,24.9061138 99.3869305,30.8938103 C99.3869305,36.8774056 94.5569986,41.7454849 88.6200783,41.7454849 L41.8070501,41.7454849 C34.3570398,41.7454849 28.2943723,35.632703 28.2943723,28.1193742 C28.2943723,20.6060454 34.3570398,14.4932635 41.8070501,14.4932635 C43.1943929,14.4932635 44.57349,14.7085745 45.9010513,15.1330447 L46.7689136,15.4098732 L47.0740054,14.5465786 C49.9352711,6.43653072 57.5811173,0.988137009 66.0989487,0.988137009 C76.5132962,0.988137009 85.1568749,8.85416572 86.2061431,19.2875218 L86.3030303,20.2533455 L87.2595341,20.1344118 C87.7872604,20.0687932 88.2201608,20.0380345 88.6200783,20.0380345" id="Fill-1" fill="#BAC6D1"></path>
                        <path d="M11.8942486,31.330584 C5.33683777,31.330584 -0.000206143063,36.6908028 -0.000206143063,43.2813701 C-0.000206143063,49.8678363 5.33683777,55.2301056 11.8942486,55.2301056 L63.6093589,55.2301056 C71.8427128,55.2301056 78.5382395,48.5000987 78.5382395,40.228055 C78.5382395,31.9560112 71.8427128,25.2260044 63.6093589,25.2260044 C62.0777159,25.2260044 60.5543187,25.4638718 59.0865801,25.9293537 L58.1300763,26.2348903 L57.7920016,25.2834207 C54.6318285,16.355191 46.1840858,10.3572416 36.7736549,10.3572416 C25.2688106,10.3572416 15.7202639,19.0188957 14.5617398,30.5041999 L14.4545455,31.5684514 L13.399093,31.4372142 C12.8136467,31.3633933 12.3353948,31.330584 11.8942486,31.330584" id="Fill-4" fill="#D6E3F2"></path>
                    </g>
                </g>
            </g>
        </g>
    </g>
</svg>