<?xml version="1.0" encoding="UTF-8"?>
<svg width="100px" height="100px" viewBox="0 0 100 100" version="1.1" xmlns="http://www.w3.org/2000/svg" xmlns:xlink="http://www.w3.org/1999/xlink">
    <!-- Generator: Sketch 42 (36781) - http://www.bohemiancoding.com/sketch -->
    <title>rain</title>
    <desc>Created with Sketch.</desc>
    <defs>
        <rect id="path-1" x="0" y="0" width="100" height="100"></rect>
        <mask id="mask-2" maskContentUnits="userSpaceOnUse" maskUnits="objectBoundingBox" x="0" y="0" width="100" height="100" fill="white">
            <use xlink:href="#path-1"></use>
        </mask>
    </defs>
    <g id="Weather-Icons-" stroke="none" stroke-width="1" fill="none" fill-rule="evenodd">
        <g id="Weather-Assets-Flat" transform="translate(-315.000000, -270.000000)">
            <g id="Day-Time-icons-White" transform="translate(23.000000, 136.000000)">
                <g id="rain" transform="translate(292.000000, 134.000000)">
                    <use id="Rectangle-1" stroke="#2B2B2B" mask="url(#mask-2)" stroke-width="2" opacity="0.0229127799" xlink:href="#path-1"></use>
                    <g id="Page-1" transform="translate(0.000000, 10.000000)">
                        <path d="M22.8703704,51.8790846 C22.8703704,51.8790846 20.1430976,59.1637736 20.8249158,61.9454665 C21.3867845,64.2461148 23.7521044,65.6557847 26.1026936,65.0889886 C28.4574916,64.5201011 29.9010943,62.1901718 29.3371212,59.8895236 C28.6574074,57.1057392 22.8703704,51.8790846 22.8703704,51.8790846" id="Fill-3" fill="#38A1E8"></path>
                        <path d="M39.7304293,51.540471 C39.7304293,51.540471 37.0031566,58.82516 37.6849747,61.6068529 C38.2468434,63.9075012 40.6121633,65.3171711 42.9627525,64.750375 C45.3175505,64.1814875 46.7611532,61.8515582 46.1971801,59.55091 C45.5174663,56.7671256 39.7304293,51.540471 39.7304293,51.540471" id="Fill-8" fill="#38A1E8"></path>
                        <path d="M57.2497896,51.1888901 C57.2497896,51.1888901 54.5225168,58.4735791 55.204335,61.255272 C55.7662037,63.5559203 58.1315236,64.9655902 60.4821128,64.3987941 C62.8369108,63.8299066 64.2805135,61.4999773 63.7165404,59.1993291 C63.0368266,56.4155447 57.2497896,51.1888901 57.2497896,51.1888901" id="Fill-10" fill="#38A1E8"></path>
                        <path d="M73.753367,50.3715325 C73.753367,50.3715325 71.0260943,57.6562215 71.7079125,60.4379144 C72.2697811,62.7385627 74.635101,64.1482326 76.9856902,63.5814366 C79.3404882,63.012549 80.7840909,60.6826198 80.2201178,58.3819715 C79.540404,55.5981871 73.753367,50.3715325 73.753367,50.3715325" id="Fill-12" fill="#38A1E8"></path>
                        <path d="M32.7609428,67.2582908 C32.7609428,67.2582908 30.03367,74.5429798 30.7154882,77.3246727 C31.2773569,79.6253209 33.6426768,81.0349909 35.993266,80.4681948 C38.348064,79.8993072 39.7916667,77.569378 39.2276936,75.2687297 C38.5479798,72.4849453 32.7609428,67.2582908 32.7609428,67.2582908" id="Fill-14" fill="#38A1E8"></path>
                        <path d="M50.280303,66.9065007 C50.280303,66.9065007 47.5530303,74.1911897 48.2348485,76.9728826 C48.7967172,79.2735309 51.162037,80.6832008 53.5126263,80.1164048 C55.8674242,79.5475172 57.3110269,77.217588 56.7470539,74.9169397 C56.0673401,72.1331553 50.280303,66.9065007 50.280303,66.9065007" id="Fill-16" fill="#38A1E8"></path>
                        <path d="M66.7838805,66.0891432 C66.7838805,66.0891432 64.0566077,73.3738322 64.7384259,76.1555251 C65.3002946,78.4561733 67.6656145,79.8658433 70.0162037,79.2990472 C72.3710017,78.7301596 73.8146044,76.4002304 73.2506313,74.0995821 C72.5709175,71.3157977 66.7838805,66.0891432 66.7838805,66.0891432" id="Fill-18" fill="#38A1E8"></path>
                        <path d="M88.9602273,24.086417 C95.0208333,24.086417 99.9513889,29.0516343 99.9513889,35.1588096 C99.9513889,41.261802 95.0208333,46.2270193 88.9602273,46.2270193 L41.1719276,46.2270193 C33.5667088,46.2270193 27.3777357,39.9922625 27.3777357,32.3290123 C27.3777357,24.6657621 33.5667088,18.4310053 41.1719276,18.4310053 C42.5881734,18.4310053 43.9960017,18.6506126 45.3512205,19.0835528 L46.2371633,19.3659051 L46.5486111,18.4853842 C49.4694865,10.213508 57.2746212,4.65639669 65.9699074,4.65639669 C76.6012205,4.65639669 85.4248737,12.6793846 86.4960017,23.3209286 L86.5949074,24.3060243 L87.5713384,24.1847174 C88.1100589,24.1177895 88.5519781,24.086417 88.9602273,24.086417" id="Fill-1" fill="#BAC6D1"></path>
                        <path d="M12.1420455,22.0413499 C5.44802189,22.0413499 -0.000210437711,27.5085267 -0.000210437711,34.2306026 C-0.000210437711,40.9484956 5.44802189,46.4177639 12.1420455,46.4177639 L64.9345539,46.4177639 C73.339436,46.4177639 80.1744529,39.5534661 80.1744529,31.1163615 C80.1744529,22.6792569 73.339436,15.8149591 64.9345539,15.8149591 C63.3710017,15.8149591 61.815867,16.0575729 60.3175505,16.532343 L59.3411195,16.8439763 L58.9960017,15.873521 C55.7699916,6.76713689 47.1462542,0.649504016 37.5397727,0.649504016 C25.7952441,0.649504016 16.0477694,9.48399334 14.8651094,21.198476 L14.7556818,22.2839637 L13.6782407,22.1501078 C13.0805976,22.0748138 12.5923822,22.0413499 12.1420455,22.0413499" id="Fill-5" fill="#D6E3F2"></path>
                    </g>
                </g>
            </g>
        </g>
    </g>
</svg>