<?xml version="1.0" encoding="UTF-8"?>
<svg width="100px" height="100px" viewBox="0 0 100 100" version="1.1" xmlns="http://www.w3.org/2000/svg" xmlns:xlink="http://www.w3.org/1999/xlink">
    <!-- Generator: Sketch 42 (36781) - http://www.bohemiancoding.com/sketch -->
    <title>chanceflurries</title>
    <desc>Created with Sketch.</desc>
    <defs>
        <rect id="path-1" x="0" y="0" width="100" height="100"></rect>
        <mask id="mask-2" maskContentUnits="userSpaceOnUse" maskUnits="objectBoundingBox" x="0" y="0" width="100" height="100" fill="white">
            <use xlink:href="#path-1"></use>
        </mask>
    </defs>
    <g id="Weather-Icons-" stroke="none" stroke-width="1" fill="none" fill-rule="evenodd">
        <g id="Weather-Assets-Flat" transform="translate(-23.000000, -136.000000)">
            <g id="Day-Time-icons-White" transform="translate(23.000000, 136.000000)">
                <g id="chanceflurries">
                    <use id="Rectangle-1" stroke="#2B2B2B" mask="url(#mask-2)" stroke-width="2" opacity="0.0229127799" xlink:href="#path-1"></use>
                    <path d="M81.8516526,53.2616039 C81.703863,52.6863611 81.3400731,52.2020658 80.8239461,51.8996654 C80.3100929,51.5949914 79.7052922,51.510865 79.1232283,51.6586546 L64.5648108,55.5603014 L54.9357466,50.0011368 L64.5648108,44.4396986 L79.1573336,48.3481664 C80.3578403,48.6232826 81.5401575,47.922987 81.8471053,46.7565856 C82.0062633,46.1745217 81.9266843,45.5674473 81.6242839,45.046773 C81.3218836,44.5260987 80.8398619,44.1600351 80.2714402,44.0145191 L70.0512174,41.2724527 L79.9804083,35.5450352 C81.0331253,34.9061292 81.3832731,33.571475 80.773925,32.5051158 C80.1623032,31.4342092 78.7867226,31.0613246 77.7135424,31.6752201 L67.8161831,37.3980901 L70.5559759,27.1710462 C70.7060392,26.5980771 70.6173654,25.9773606 70.3172388,25.465781 C70.0125647,24.9496541 69.5282694,24.5858642 68.9530266,24.4380745 C67.7798041,24.1379478 66.5588342,24.8473382 66.2314233,26.0228343 L62.3320502,40.565336 L52.702986,46.1267743 L52.702986,35.0038977 L63.357483,24.3516744 C64.2101156,23.483126 64.2078419,22.0688927 63.3529356,21.1957969 C62.9300299,20.7706175 62.3661555,20.5364277 61.7659022,20.5364277 C61.1679225,20.5364277 60.6063218,20.7706175 60.183416,21.1935232 L52.702986,28.6739533 L52.702986,17.2327606 C52.702986,16.0026959 51.6957427,15 50.458857,15 C49.2265186,15 48.2260964,16.0026959 48.2260964,17.2327606 L48.2260964,28.6739533 L40.74794,21.1957969 C40.3250343,20.7706175 39.7611599,20.5364277 39.1609065,20.5364277 C38.5629269,20.5364277 37.9990525,20.7728912 37.5693257,21.202618 C36.7189668,22.0711664 36.7235141,23.4853997 37.5784204,24.3584955 L48.2260964,35.0038977 L48.2260964,46.1267743 L38.5947585,40.565336 L34.6931117,26.0091922 C34.3679745,24.8427908 33.1492783,24.1379478 31.9760558,24.4380745 C30.7823701,24.7427486 30.0638851,25.9728132 30.3708328,27.180141 L33.1128993,37.4003638 L23.1996242,31.6729464 C22.1264439,31.0613246 20.7849686,31.4251145 20.1437889,32.5051158 C19.5321671,33.578296 19.895957,34.9197713 20.9736847,35.5586774 L30.877865,41.2724527 L20.6781054,44.0099717 C20.1005889,44.1554877 19.6140199,44.5170039 19.3116195,45.0308572 C19.0069455,45.5447104 18.9205453,46.1745217 19.0751561,46.7634066 C19.3457248,47.734271 20.2324627,48.409556 21.2306113,48.409556 C21.4193273,48.409556 21.6034959,48.3868191 21.8172225,48.336798 L36.3529032,44.4396986 L45.9910621,50.0011368 L36.3619979,55.5603014 L21.8081278,51.6609283 C21.2351587,51.510865 20.6098947,51.5972651 20.0983152,51.9019391 C19.591283,52.2020658 19.220672,52.6909085 19.0842508,53.2365934 C18.922819,53.8141099 19.0001244,54.4189106 19.3002511,54.9441323 C19.5981041,55.4602592 20.0914941,55.8399649 20.6576422,55.9877546 L30.877865,58.7275473 L20.9600425,64.4504174 C19.895957,65.0802287 19.5344408,66.4489882 20.1551574,67.4948842 C20.5576,68.1974535 21.2851798,68.6180856 22.0991597,68.6180856 C22.4902339,68.6180856 22.8744869,68.5180433 23.21554,68.3247799 L33.121994,62.5996362 L30.3844749,72.813038 C30.2253168,73.3882808 30.3048959,73.9953552 30.6072963,74.5183032 C30.9028756,75.0298827 31.3780761,75.39822 31.9374031,75.5505571 C32.1306665,75.6096729 32.3284773,75.6369572 32.5444775,75.6369572 C33.535805,75.6369572 34.4248166,74.9571248 34.7090275,73.9771657 L38.5970322,59.4323903 L48.2260964,53.8732257 L48.2260964,64.9961023 L37.5875152,75.6415045 C36.7144194,76.5146003 36.7144194,77.933381 37.5875152,78.8064768 C38.0104209,79.2293825 38.5720216,79.4635723 39.1745487,79.4635723 C39.774802,79.4612986 40.334129,79.2293825 40.7547611,78.8064768 L48.2260964,71.3283204 L48.2260964,82.7672394 C48.2260964,83.9995777 49.231066,85 50.4679517,85 C51.70029,85 52.702986,83.9995777 52.702986,82.7672394 L52.702986,71.3260467 L60.1788687,78.8019294 C60.6017744,79.2293825 61.1656488,79.4635723 61.7613548,79.4635723 C62.3661555,79.4635723 62.9300299,79.2293825 63.3483883,78.8064768 C64.2214841,77.933381 64.2214841,76.5146003 63.3483883,75.6415045 L52.702986,64.9961023 L52.702986,53.8754994 L62.3320502,59.4437587 L66.2268759,73.9953552 C66.4997184,74.9616721 67.3864563,75.6369572 68.3846049,75.6369572 C68.5983314,75.6369572 68.7961422,75.6096729 68.9825845,75.5528307 C69.5510063,75.4004937 70.0262068,75.0344301 70.3217861,74.5251242 C70.6219128,74.0089973 70.7037655,73.3882808 70.5468811,72.819859 L67.8070884,62.608731 L77.7249108,68.331601 C78.0659639,68.5248644 78.4479433,68.6249066 78.8299227,68.6249066 C79.6370815,68.6249066 80.360114,68.2065482 80.7693776,67.503979 C81.3832731,66.4489882 81.0194832,65.0756813 79.9553977,64.4413226 L70.0512174,58.7275473 L80.2623455,55.9900283 C80.8421356,55.8376912 81.326431,55.4670803 81.6288313,54.9441323 C81.9244106,54.4280053 82.0062633,53.8141099 81.8516526,53.2616039" id="Page-1" fill="#4FB4ED"></path>
                </g>
            </g>
        </g>
    </g>
</svg>