<?xml version="1.0" encoding="UTF-8"?>
<svg width="100px" height="100px" viewBox="0 0 100 100" version="1.1" xmlns="http://www.w3.org/2000/svg" xmlns:xlink="http://www.w3.org/1999/xlink">
    <!-- Generator: Sketch 42 (36781) - http://www.bohemiancoding.com/sketch -->
    <title>clear</title>
    <desc>Created with Sketch.</desc>
    <defs>
        <rect id="path-1" x="0" y="0" width="100" height="100"></rect>
        <mask id="mask-2" maskContentUnits="userSpaceOnUse" maskUnits="objectBoundingBox" x="0" y="0" width="100" height="100" fill="white">
            <use xlink:href="#path-1"></use>
        </mask>
    </defs>
    <g id="Weather-Icons-" stroke="none" stroke-width="1" fill="none" fill-rule="evenodd">
        <g id="Weather-Assets-Flat" transform="translate(-746.000000, -136.000000)">
            <g id="Day-Time-icons-White" transform="translate(23.000000, 136.000000)">
                <g id="clear" transform="translate(723.000000, 0.000000)">
                    <use id="Rectangle-1" stroke="#2B2B2B" mask="url(#mask-2)" stroke-width="2" opacity="0.0229127799" xlink:href="#path-1"></use>
                    <g id="Page-1" transform="translate(15.000000, 16.000000)" fill="#F9C900">
                        <path d="M35.5776806,19.0601557 C44.2093581,19.0668314 51.2006161,26.0673594 51.1939387,34.6967452 C51.1872613,43.3261309 44.1848742,50.3155329 35.5531968,50.3088572 C26.9215194,50.3021816 19.9302613,43.3016536 19.9369387,34.6722678 C19.9436161,26.042882 26.9460032,19.0534801 35.5776806,19.0601557" id="Fill-1"></path>
                        <path d="M31.8510129,55.5247624 C31.8510129,55.7116805 31.826529,55.903049 31.7753355,56.0921923 L29.182271,65.7385016 C28.8684323,66.9067398 27.6664968,67.601007 26.4979484,67.2872516 C25.3294,66.9734962 24.6349484,65.7718798 24.9510129,64.6014165 L27.5440774,54.9551072 C27.8579161,53.7868691 29.0598516,53.094827 30.2284,53.4085824 C31.2077548,53.6711579 31.8510129,54.5567936 31.8510129,55.5247624" id="Fill-3"></path>
                        <path d="M20.9944194,51.5643238 C20.9944194,52.1540059 20.7562581,52.743688 20.2888387,53.1753798 L12.9414516,59.9422602 C12.051129,60.7633648 10.6644516,60.7055092 9.84535484,59.815423 C9.02403226,58.927562 9.07967742,57.5412527 9.97,56.7201482 L17.3173871,49.9510426 C18.2077097,49.1321633 19.5943871,49.1900189 20.4134839,50.0778798 C20.803,50.5006708 20.9944194,51.0324973 20.9944194,51.5643238" id="Fill-5"></path>
                        <path d="M15.0564129,40.9284612 C15.0564129,41.9031056 14.3998,42.7909666 13.4137677,43.0468664 L3.7404129,45.5457834 C2.5674129,45.8484127 1.37215484,45.1452446 1.06944516,43.972556 C0.766735484,42.8020927 1.47009032,41.6071519 2.64309032,41.3045226 L12.3164452,38.8033804 C13.4872194,38.5007511 14.6824774,39.2061444 14.9851871,40.3766078 C15.0341548,40.5613006 15.0564129,40.7459935 15.0564129,40.9284612" id="Fill-7"></path>
                        <path d="M15.3640194,28.6559526 C15.3640194,28.836195 15.3417613,29.0186627 15.2950194,29.2011304 C14.9923097,30.373819 13.7970516,31.0792123 12.6262774,30.776583 L2.95069677,28.2865668 C1.77769677,27.9861627 1.07211613,26.791222 1.37482581,25.6207586 C1.67530968,24.44807 2.87056774,23.7426767 4.04356774,24.045306 L13.7191484,26.5353222 C14.7074065,26.7889968 15.3640194,27.679083 15.3640194,28.6559526" id="Fill-10"></path>
                        <path d="M20.9403323,17.9891595 C20.9403323,18.5365625 20.7355581,19.0861907 20.3237839,19.5112069 C19.482429,20.3790409 18.0935258,20.4035183 17.2254613,19.5601616 L10.0472355,12.6130388 C9.17917097,11.7719073 9.1546871,10.3833728 9.99826774,9.51553879 C10.8396226,8.64547953 12.2263,8.62322737 13.0965903,9.46435884 L20.2725903,16.4137069 C20.7177516,16.8431735 20.9403323,17.4150539 20.9403323,17.9891595" id="Fill-12"></path>
                        <path d="M31.1198355,11.8985221 C31.1198355,12.8776169 30.4565452,13.7699283 29.4638355,14.0191525 C28.2908355,14.3151061 27.100029,13.6030372 26.8039968,12.4303486 L24.3622871,2.74398545 C24.0662548,1.56907166 24.7785129,0.380806573 25.9515129,0.0848529095 C27.1245129,-0.211100754 28.3153194,0.500968211 28.6113516,1.67365679 L31.0530613,11.3600199 C31.0975774,11.5402624 31.1198355,11.7205048 31.1198355,11.8985221" id="Fill-14"></path>
                        <path d="M45.7890129,2.9262306 C45.7890129,3.11092349 45.764529,3.29784159 45.7155613,3.48253448 L43.1759161,13.1444203 C42.8687548,14.3126584 41.671271,15.0136013 40.5004968,14.7042963 C39.3297226,14.3972166 38.6308194,13.1978254 38.9379806,12.0295873 L41.4776258,2.36992672 C41.7847871,1.19946336 42.9844968,0.50074569 44.155271,0.807825431 C45.1390774,1.06595043 45.7890129,1.95381142 45.7890129,2.9262306" id="Fill-17"></path>
                        <path d="M61.6779323,11.2670059 C61.6779323,11.8789402 61.4219645,12.486424 60.9256097,12.9181158 L53.3868032,19.475826 C52.4742226,20.2680027 51.089771,20.1723184 50.2951581,19.2599801 C49.5005452,18.3476417 49.5962548,16.9635577 50.5110613,16.1691557 L58.0476419,9.6136708 C58.9624484,8.81926886 60.3446742,8.91495312 61.1392871,9.82729149 C61.5020935,10.2434068 61.6779323,10.7574316 61.6779323,11.2670059" id="Fill-19"></path>
                        <path d="M69.4471097,25.8864494 C69.4471097,26.8477425 68.8083032,27.7289278 67.8356258,27.9959537 L58.2001097,30.6395097 C57.0337871,30.9599407 55.8274,30.2723491 55.5068839,29.1063362 C55.1863677,27.9380981 55.8741419,26.7342565 57.0404645,26.4138254 L66.6759806,23.7702694 C67.8423032,23.4520636 69.0486903,24.13743 69.3692065,25.3034429 C69.4226258,25.4992619 69.4471097,25.6950808 69.4471097,25.8864494" id="Fill-21"></path>
                        <path d="M69.2815097,42.965201 C69.2815097,43.1454434 69.2592516,43.3279111 69.2125097,43.5103788 C68.9098,44.6830673 67.7145419,45.3884607 66.5437677,45.0858314 L56.8681871,42.5958152 C55.6951871,42.2954111 54.9896065,41.1004704 55.2923161,39.930007 C55.5928,38.7573184 56.7880581,38.0519251 57.9610581,38.3545544 L67.6366387,40.8445706 C68.6248968,41.0982452 69.2815097,41.9883314 69.2815097,42.965201" id="Fill-23"></path>
                        <path d="M61.099,58.0063227 C61.099,58.5737527 60.8786452,59.1434079 60.4401613,59.5706492 C59.5743226,60.4162311 58.1876452,60.4006546 57.3418387,59.5350458 L50.3572581,52.3943292 C49.5114516,51.5287204 49.5248065,50.1424111 50.3906452,49.2968292 C51.2564839,48.4512473 52.6431613,48.4668238 53.4889677,49.3302074 L60.4735484,56.4731492 C60.892,56.9003906 61.099,57.4522441 61.099,58.0063227" id="Fill-25"></path>
                        <path d="M46.0140419,66.0847452 C46.0140419,67.0504887 45.3685581,67.9338992 44.391429,68.1964747 C43.2228806,68.5124553 42.0209452,67.8204133 41.7071065,66.6521751 L39.1073645,57.0080911 C38.7913,55.8398529 39.4835258,54.6360113 40.6520742,54.3222559 C41.8206226,54.0062753 43.0225581,54.6983173 43.3386226,55.8665555 L45.9383645,65.5128648 C45.9895581,65.7042333 46.0140419,65.8956018 46.0140419,66.0847452" id="Fill-27"></path>
                    </g>
                </g>
            </g>
        </g>
    </g>
</svg>