<?xml version="1.0" encoding="UTF-8"?>
<svg width="100px" height="100px" viewBox="0 0 100 100" version="1.1" xmlns="http://www.w3.org/2000/svg" xmlns:xlink="http://www.w3.org/1999/xlink">
    <!-- Generator: Sketch 42 (36781) - http://www.bohemiancoding.com/sketch -->
    <title>tstorms</title>
    <desc>Created with Sketch.</desc>
    <defs>
        <rect id="path-1" x="0" y="0" width="100" height="100"></rect>
        <mask id="mask-2" maskContentUnits="userSpaceOnUse" maskUnits="objectBoundingBox" x="0" y="0" width="100" height="100" fill="white">
            <use xlink:href="#path-1"></use>
        </mask>
    </defs>
    <g id="Weather-Icons-" stroke="none" stroke-width="1" fill="none" fill-rule="evenodd">
        <g id="Weather-Assets-Flat" transform="translate(-891.000000, -270.000000)">
            <g id="Day-Time-icons-White" transform="translate(23.000000, 136.000000)">
                <g id="tstorms" transform="translate(868.000000, 134.000000)">
                    <use id="Rectangle-1" stroke="#2B2B2B" mask="url(#mask-2)" stroke-width="2" opacity="0.0229127799" xlink:href="#path-1"></use>
                    <g id="Page-1" transform="translate(0.000000, 9.000000)">
                        <path d="M62.9446809,51.2431719 C62.9446809,51.2431719 60.2,58.7156615 60.893617,61.5759242 C61.4680851,63.9374525 63.8638298,65.3888973 66.2382979,64.8113033 C68.6191489,64.2315779 70.0744681,61.8402107 69.5021277,59.4786824 C68.8085106,56.620551 62.9446809,51.2431719 62.9446809,51.2431719" id="Fill-9" fill="#38A1E8"></path>
                        <path d="M79.9980851,50.9264543 C79.9980851,50.9264543 77.2534043,58.3989439 77.9470213,61.2570752 C78.5214894,63.6207349 80.917234,65.0721797 83.2917021,64.4945857 C85.6725532,63.9148603 87.1278723,61.5234931 86.5555319,59.1619648 C85.8619149,56.3038334 79.9980851,50.9264543 79.9980851,50.9264543" id="Fill-11" fill="#38A1E8"></path>
                        <path d="M14.3848936,52.2007845 C14.3848936,52.2007845 11.6402128,59.673274 12.3338298,62.5314054 C12.9082979,64.8950651 15.3040426,66.3465099 17.6785106,65.7689158 C20.0593617,65.1891904 21.5146809,62.7978233 20.9423404,60.4362949 C20.2487234,57.5781636 14.3848936,52.2007845 14.3848936,52.2007845" id="Fill-13" fill="#38A1E8"></path>
                        <path d="M26.2074468,68.4524901 C26.2074468,68.4524901 23.45,75.8759588 24.1393617,78.7106454 C24.7074468,81.055123 27.0989362,82.4916484 29.4755319,81.9140543 C31.856383,81.334329 33.3159574,78.9600125 32.7457447,76.6155349 C32.0585106,73.778717 26.2074468,68.4524901 26.2074468,68.4524901" id="Fill-15" fill="#38A1E8"></path>
                        <path d="M56.6876596,67.4756955 C56.6876596,67.4756955 53.9302128,74.8991642 54.6195745,77.7338507 C55.1876596,80.0783284 57.5791489,81.5148537 59.9557447,80.9372597 C62.3365957,80.3575343 63.7961702,77.9832179 63.2259574,75.6387403 C62.5387234,72.8019224 56.6876596,67.4756955 56.6876596,67.4756955" id="Fill-17" fill="#38A1E8"></path>
                        <path d="M74.7087234,66.6429797 C74.7087234,66.6429797 71.9512766,74.0664484 72.6406383,76.9011349 C73.2087234,79.2456125 75.6002128,80.6821379 77.9768085,80.1045439 C80.3576596,79.5248185 81.817234,77.1505021 81.2470213,74.8060245 C80.5597872,71.9692066 74.7087234,66.6429797 74.7087234,66.6429797" id="Fill-19" fill="#38A1E8"></path>
                        <path d="M28.3457447,56.8844113 L42.3734043,56.8844113 L41.6329787,54.8234024 C40.2946809,51.0978143 39.0797872,47.7217666 38.6968085,46.6646203 C38.0585106,44.8998681 38.0329787,43.527283 38.6265957,42.7003218 C39.1117021,42.0225546 39.8819149,41.881886 40.0606383,41.881886 L44.3074468,41.881886 C46.9691489,41.881886 48.5946809,44.539671 49.1755319,46.8138143 C49.356383,47.5235516 49.5670213,48.3398561 49.7968085,49.232889 C50.7223404,52.822071 51.9904255,57.73908 52.8712766,61.5733666 C53.4946809,64.2865666 52.8797872,65.4225725 52.5861702,65.7849009 C52.3138298,66.1216531 51.9351064,66.2836352 51.4265957,66.2836352 L36.8287234,66.2836352 L41.9393617,80.879074 C42.1755319,81.5504472 42.1393617,81.9213009 42.0968085,82.0385248 C41.9031915,82.0662322 41.2074468,81.9063815 40.5797872,81.0048233 C37.6074468,76.73148 30.1159574,65.6804651 26.8457447,60.6483636 C26.0542553,59.4292352 25.8031915,58.4253725 26.1393617,57.820071 C26.4457447,57.2701845 27.3521277,56.8844113 28.3457447,56.8844113" id="Fill-1" fill="#F9C900"></path>
                        <path d="M88.0729787,24.8899648 C94.2006383,24.8899648 99.1857447,29.9497737 99.1857447,36.1732961 C99.1857447,42.3925558 94.2006383,47.4523648 88.0729787,47.4523648 L39.7559574,47.4523648 C32.0665957,47.4523648 25.8091489,41.0988304 25.8091489,33.2895887 C25.8091489,25.4803469 32.0665957,19.1268125 39.7559574,19.1268125 C41.1878723,19.1268125 42.6112766,19.3506036 43.9814894,19.7917916 L44.877234,20.079523 L45.1921277,19.1822275 C48.1453191,10.7527648 56.0368085,5.08978567 64.8282979,5.08978567 C75.577234,5.08978567 84.4985106,13.2656185 85.5814894,24.1098931 L85.6814894,25.1137558 L86.6687234,24.9901379 C87.2134043,24.9219349 87.6602128,24.8899648 88.0729787,24.8899648" id="Fill-3" fill="#D6E3F2"></path>
                        <path d="M12.276383,22.6774173 C5.50829787,22.6774173 -0.000212765957,28.2487487 -0.000212765957,35.098886 C-0.000212765957,41.9447606 5.50829787,47.5182233 12.276383,47.5182233 L65.6529787,47.5182233 C74.1508511,47.5182233 81.0614894,40.5231546 81.0614894,31.9253158 C81.0614894,23.327477 74.1508511,16.3324084 65.6529787,16.3324084 C64.0721277,16.3324084 62.4997872,16.5796442 60.9848936,17.0634591 L59.9976596,17.3810293 L59.6487234,16.392086 C56.3870213,7.11221731 47.6678723,0.878038209 37.9551064,0.878038209 C26.0806383,0.878038209 16.2253191,9.88083224 15.0295745,21.818486 L14.9189362,22.9246531 L13.8295745,22.7882472 C13.2253191,22.7115188 12.7317021,22.6774173 12.276383,22.6774173" id="Fill-6" fill="#BAC6D1"></path>
                    </g>
                </g>
            </g>
        </g>
    </g>
</svg>